<?xml version="1.0" encoding="UTF-8"?>
<svg xmlns="http://www.w3.org/2000/svg" xmlns:xlink="http://www.w3.org/1999/xlink" width="96px" height="96px" viewBox="0 0 96 96" version="1.1">
<defs>
<linearGradient id="linear0" gradientUnits="userSpaceOnUse" x1="19.075" y1="18.782" x2="34.898" y2="34.658" gradientTransform="matrix(1.5,0,0,1.5,0,0)">
<stop offset="0" style="stop-color:rgb(21.960784%,49.411765%,72.156863%);stop-opacity:1;"/>
<stop offset="1" style="stop-color:rgb(21.176471%,41.176471%,58.039216%);stop-opacity:1;"/>
</linearGradient>
<linearGradient id="linear1" gradientUnits="userSpaceOnUse" x1="28.809" y1="28.882" x2="45.803" y2="45.163" gradientTransform="matrix(1.5,0,0,1.5,0,0)">
<stop offset="0" style="stop-color:rgb(100%,87.843137%,32.156863%);stop-opacity:1;"/>
<stop offset="1" style="stop-color:rgb(100%,76.470588%,19.215686%);stop-opacity:1;"/>
</linearGradient>
</defs>
<g id="surface1">
<path style=" stroke:none;fill-rule:nonzero;fill:url(#linear0);" d="M 47.828125 24 C 35.640625 24 36.402344 29.285156 36.402344 29.285156 L 36.417969 34.757812 L 48.046875 34.757812 L 48.046875 36.402344 L 31.796875 36.402344 C 31.796875 36.402344 24 35.515625 24 47.8125 C 24 60.109375 30.804688 59.671875 30.804688 59.671875 L 34.867188 59.671875 L 34.867188 53.96875 C 34.867188 53.96875 34.648438 47.160156 41.566406 47.160156 L 53.097656 47.160156 C 53.097656 47.160156 59.578125 47.265625 59.578125 40.898438 L 59.578125 30.371094 C 59.578125 30.371094 60.5625 24 47.828125 24 Z M 41.414062 27.679688 C 42.570312 27.679688 43.507812 28.617188 43.507812 29.773438 C 43.507812 30.929688 42.570312 31.867188 41.414062 31.867188 C 40.859375 31.867188 40.328125 31.648438 39.933594 31.253906 C 39.542969 30.863281 39.320312 30.328125 39.324219 29.773438 C 39.324219 28.617188 40.257812 27.679688 41.414062 27.679688 Z M 41.414062 27.679688 "/>
<path style=" stroke:none;fill-rule:nonzero;fill:url(#linear1);" d="M 48.171875 71.75 C 60.359375 71.75 59.597656 66.464844 59.597656 66.464844 L 59.582031 60.988281 L 47.953125 60.988281 L 47.953125 59.347656 L 64.203125 59.347656 C 64.203125 59.347656 72 60.234375 72 47.9375 C 72 35.640625 65.195312 36.078125 65.195312 36.078125 L 61.132812 36.078125 L 61.132812 41.78125 C 61.132812 41.78125 61.351562 48.589844 54.433594 48.589844 L 42.902344 48.589844 C 42.902344 48.589844 36.421875 48.484375 36.421875 54.851562 L 36.421875 65.378906 C 36.421875 65.378906 35.4375 71.75 48.171875 71.75 Z M 54.585938 68.070312 C 54.03125 68.070312 53.496094 67.847656 53.105469 67.457031 C 52.710938 67.0625 52.492188 66.53125 52.492188 65.976562 C 52.492188 64.820312 53.429688 63.886719 54.585938 63.886719 C 55.742188 63.886719 56.675781 64.820312 56.675781 65.976562 C 56.675781 67.132812 55.742188 68.070312 54.585938 68.070312 Z M 54.585938 68.070312 "/>
</g>
</svg>
